<?xml version="1.0" encoding="UTF-8"?>
<svg version="1.1" xmlns="http://www.w3.org/2000/svg" width="820" height="360">
<path d="M0 0 C0.71994141 -0.00773437 1.43988281 -0.01546875 2.18164062 -0.0234375 C5.96684363 -0.00937918 7.71610465 0.1024031 10.9375 2.25 C12.1440625 2.683125 12.1440625 2.683125 13.375 3.125 C17.44712719 4.91276315 19.50478649 7.60092974 21.9375 11.25 C22.659375 10.486875 23.38125 9.72375 24.125 8.9375 C30.54950061 2.79853275 36.22861011 2.06422574 44.875 2 C45.56529297 1.979375 46.25558594 1.95875 46.96679688 1.9375 C55.09199269 1.87588714 61.03001869 6.03983831 66.9375 11.25 C68.6875 13.875 68.6875 13.875 69.9375 16.25 C70.576875 16.8275 71.21625 17.405 71.875 18 C74.9229444 21.32503025 76.28956119 25.09285395 77.9375 29.25 C78.24042969 29.90613281 78.54335938 30.56226563 78.85546875 31.23828125 C82.01617075 38.88035416 81.17515262 47.14340521 80.9375 55.25 C80.9375 55.91 80.9375 56.57 80.9375 57.25 C82.42364142 58.4719385 83.91121698 59.69223226 85.41015625 60.8984375 C89.81945806 64.80027491 91.75100978 70.41458743 92.12890625 76.16015625 C92.29164671 85.08918257 92.29164671 85.08918257 89.9375 89.25 C89.751875 90.425625 89.751875 90.425625 89.5625 91.625 C88.73602384 95.09619986 87.06422317 97.41436911 84.9375 100.25 C83.9475 100.745 83.9475 100.745 82.9375 101.25 C82.65132812 102.00410156 82.36515625 102.75820312 82.0703125 103.53515625 C79.08481893 110.69004601 70.60182395 117.40519772 63.9375 121.25 C62.9475 121.25 61.9575 121.25 60.9375 121.25 C59.91948643 122.23165594 58.9215423 123.23429298 57.9375 124.25 C52.8867972 127.00047963 47.5067728 128.8576818 41.9375 130.25 C41.174375 130.45625 40.41125 130.6625 39.625 130.875 C28.80371078 132.38494733 28.80371078 132.38494733 24.734375 129.91015625 C23.0231721 128.43198301 21.4483075 126.93089841 19.9375 125.25 C19.380625 126.2090625 19.380625 126.2090625 18.8125 127.1875 C16.33850133 129.90889853 14.52867883 129.94436776 10.9375 130.25 C5.95255092 130.25 2.06760185 130.00340123 -2.0625 127.25 C-2.0625 126.26 -2.0625 125.27 -2.0625 124.25 C-3.5475 124.62125 -3.5475 124.62125 -5.0625 125 C-9.94182376 125.66358803 -12.98414568 123.74114138 -17.0625 121.25 C-17.95582031 120.71632813 -18.84914063 120.18265625 -19.76953125 119.6328125 C-30.56877726 112.98484984 -40.47035553 105.41918285 -45.0625 93.25 C-45.578125 92.56550781 -46.09375 91.88101563 -46.625 91.17578125 C-48.74586422 86.85913097 -48.42129472 82.8643698 -48.3125 78.125 C-48.30734375 77.21878906 -48.3021875 76.31257813 -48.296875 75.37890625 C-48.19019397 66.37769397 -48.19019397 66.37769397 -45.0625 63.25 C-44.5675 62.38375 -44.0725 61.5175 -43.5625 60.625 C-43.0675 59.84125 -42.5725 59.0575 -42.0625 58.25 C-41.4025 58.25 -40.7425 58.25 -40.0625 58.25 C-39.7325 57.26 -39.4025 56.27 -39.0625 55.25 C-38.0725 54.755 -38.0725 54.755 -37.0625 54.25 C-37.11579468 53.41807129 -37.11579468 53.41807129 -37.17016602 52.56933594 C-37.32816815 50.04657727 -37.47667563 47.52334539 -37.625 45 C-37.68107422 44.12730469 -37.73714844 43.25460938 -37.79492188 42.35546875 C-37.84326172 41.51113281 -37.89160156 40.66679687 -37.94140625 39.796875 C-37.9885376 39.02182617 -38.03566895 38.24677734 -38.08422852 37.44824219 C-38.03793973 32.76527351 -36.16568969 29.37225179 -34.0625 25.25 C-33.75957031 24.4559375 -33.45664062 23.661875 -33.14453125 22.84375 C-30.78075592 17.177516 -26.90113244 11.08753607 -22.0625 7.25 C-21.0725 7.25 -20.0825 7.25 -19.0625 7.25 C-18.7325 6.26 -18.4025 5.27 -18.0625 4.25 C-15.25 3.1875 -15.25 3.1875 -12.0625 2.25 C-11.50304687 1.90582031 -10.94359375 1.56164062 -10.3671875 1.20703125 C-6.97063169 -0.20340294 -3.61609596 -0.03905774 0 0 Z M-19.0625 22.25 C-20.09220259 23.56053056 -21.08668241 24.89886795 -22.0625 26.25 C-22.76375 27.178125 -23.465 28.10625 -24.1875 29.0625 C-26.26471337 32.59376273 -26.68109354 35.20709154 -27.0625 39.25 C-27.3925 40.24 -27.7225 41.23 -28.0625 42.25 C-24.96173812 41.64748835 -22.98961493 40.68696287 -20.48828125 38.7734375 C-19.82481689 38.27078369 -19.16135254 37.76812988 -18.4777832 37.25024414 C-17.43690552 36.44574829 -17.43690552 36.44574829 -16.375 35.625 C-15.66110107 35.08029053 -14.94720215 34.53558105 -14.21166992 33.97436523 C-12.7964365 32.89288446 -11.38336977 31.80856148 -9.97265625 30.72119141 C-8.38379209 29.49745733 -6.7866671 28.28445798 -5.1875 27.07421875 C2.57431413 21.21203008 2.57431413 21.21203008 7.9375 13.25 C-1.76893071 12.61351274 -11.97874296 15.16624296 -19.0625 22.25 Z M20.9375 14.25 C21.9375 18.25 21.9375 18.25 21.9375 18.25 Z M32.9375 14.25 C36.45064665 22.33078707 45.73586155 27.5003154 52.625 32.5625 C53.45322266 33.18189453 54.28144531 33.80128906 55.13476562 34.43945312 C56.34229492 35.32987305 56.34229492 35.32987305 57.57421875 36.23828125 C58.29311279 36.76977783 59.01200684 37.30127441 59.75268555 37.84887695 C62.06853286 39.33403147 64.35766714 40.30974523 66.9375 41.25 C66.9375 41.91 66.9375 42.57 66.9375 43.25 C67.5975 43.25 68.2575 43.25 68.9375 43.25 C69.95418421 40.19994738 70.25192842 38.05369595 69.06640625 35.0234375 C64.15412261 25.87220506 56.46344104 19.93396069 47.9375 14.25 C45.33504502 14.10778935 42.84632316 14.06197068 40.25 14.125 C39.54810547 14.13402344 38.84621094 14.14304687 38.12304688 14.15234375 C36.39438475 14.17586296 34.66589855 14.21173287 32.9375 14.25 Z M16.8125 22.125 C14.71695945 24.02762162 14.71695945 24.02762162 14.9375 26.25 C14.2775 26.25 13.6175 26.25 12.9375 26.25 C12.9375 26.91 12.9375 27.57 12.9375 28.25 C12.2775 28.25 11.6175 28.25 10.9375 28.25 C10.6075 29.24 10.2775 30.23 9.9375 31.25 C8.20523725 32.85812665 6.4029991 34.39197316 4.5625 35.875 C3.58539063 36.67164063 2.60828125 37.46828125 1.6015625 38.2890625 C-1.0625 40.25 -1.0625 40.25 -4.0625 41.25 C-4.7225 41.91 -5.3825 42.57 -6.0625 43.25 C-12.10934011 48.63957488 -18.55270061 53.4398034 -25.0625 58.25 C-24.4025 58.58 -23.7425 58.91 -23.0625 59.25 C-22.70603216 60.57733552 -22.37688918 61.91207312 -22.0625 63.25 C-17.99071054 71.84421175 -11.58258349 78.72946657 -5.33056641 85.76855469 C-4.0625 87.25 -4.0625 87.25 -2.32421875 89.6640625 C-1.90785156 90.18742187 -1.49148438 90.71078125 -1.0625 91.25 C-0.4025 91.25 0.2575 91.25 0.9375 91.25 C0.9375 91.91 0.9375 92.57 0.9375 93.25 C1.5975 93.25 2.2575 93.25 2.9375 93.25 C3.164375 93.78625 3.39125 94.3225 3.625 94.875 C5.35581589 98.00695256 7.62235717 100.52970717 9.9375 103.25 C10.9275 104.735 10.9275 104.735 11.9375 106.25 C12.9275 107.24 12.9275 107.24 13.9375 108.25 C14.95972624 109.71389465 15.95729692 111.19514081 16.9375 112.6875 C17.453125 113.46996094 17.96875 114.25242187 18.5 115.05859375 C18.974375 115.78175781 19.44875 116.50492187 19.9375 117.25 C20.9275 118.735 20.9275 118.735 21.9375 120.25 C21.9375 119.59 21.9375 118.93 21.9375 118.25 C23.9175 117.26 23.9175 117.26 25.9375 116.25 C25.6075 115.26 25.2775 114.27 24.9375 113.25 C25.5975 113.25 26.2575 113.25 26.9375 113.25 C26.9375 112.59 26.9375 111.93 26.9375 111.25 C27.5975 111.25 28.2575 111.25 28.9375 111.25 C29.494375 110.1775 30.05125 109.105 30.625 108 C32.55791949 104.57597118 34.79389629 102.62894335 37.9375 100.25 C38.4325 98.765 38.4325 98.765 38.9375 97.25 C43.12302036 92.61199095 43.12302036 92.61199095 46.1875 91.25 C48.24027024 90.34725562 48.24027024 90.34725562 48.6875 87.625 C48.77 86.84125 48.8525 86.0575 48.9375 85.25 C49.9275 84.92 50.9175 84.59 51.9375 84.25 C53.54111991 82.19362506 53.54111991 82.19362506 55 79.75 C57.73543341 75.3510333 57.73543341 75.3510333 59.9375 74.25 C62.23786185 71.01651288 62.23786185 71.01651288 62.9375 67.25 C63.9275 66.92 64.9175 66.59 65.9375 66.25 C66.79400653 63.44954954 66.79400653 63.44954954 66.9375 60.25 C64.22163747 57.03858909 60.94217031 54.66438166 57.5625 52.1875 C55.35366372 50.54233501 53.14493505 48.89704319 50.9375 47.25 C50.05650635 46.59306152 50.05650635 46.59306152 49.15771484 45.92285156 C41.98195128 40.53762667 35.54156071 35.2218637 29.8046875 28.24609375 C27.92207504 26.23351014 26.40701258 25.38618331 23.9375 24.25 C22.92508315 22.92607028 21.92310611 21.59400833 20.9375 20.25 C18.71512162 20.02945945 18.71512162 20.02945945 16.8125 22.125 Z M-28.0625 45.25 C-27.0625 49.25 -27.0625 49.25 -27.0625 49.25 Z M68.9375 54.25 C69.9375 57.25 69.9375 57.25 69.9375 57.25 Z M-37.0625 56.25 C-36.0625 59.25 -36.0625 59.25 -36.0625 59.25 Z M-26.0625 56.25 C-25.0625 58.25 -25.0625 58.25 -25.0625 58.25 Z M-36.0625 60.25 C-35.0625 62.25 -35.0625 62.25 -35.0625 62.25 Z M75.9375 66.25 C76.9375 69.25 76.9375 69.25 76.9375 69.25 Z M-35.21484375 68.16796875 C-38.21563284 71.54940762 -37.68098945 75.19861639 -37.625 79.5625 C-37.64884766 80.40490234 -37.67269531 81.24730469 -37.69726562 82.11523438 C-37.6873207 86.35508855 -37.49840608 89.28159522 -34.7265625 92.609375 C-33.84742188 93.48078125 -32.96828125 94.3521875 -32.0625 95.25 C-31.23685547 96.28447266 -31.23685547 96.28447266 -30.39453125 97.33984375 C-23.93912692 105.18921713 -15.68738445 110.91033104 -6.0625 114.25 C-5.4025 114.25 -4.7425 114.25 -4.0625 114.25 C-3.7325 114.91 -3.4025 115.57 -3.0625 116.25 C-3.0625 115.59 -3.0625 114.93 -3.0625 114.25 C-2.505625 114.765625 -1.94875 115.28125 -1.375 115.8125 C0.87835007 117.54476698 0.87835007 117.54476698 3.6875 116.9375 C4.43 116.710625 5.1725 116.48375 5.9375 116.25 C5.545625 115.198125 5.15375 114.14625 4.75 113.0625 C4.52957031 112.47082031 4.30914062 111.87914062 4.08203125 111.26953125 C2.47722939 108.43785015 0.27923559 106.49956815 -2.0625 104.25 C-10.50049225 95.40074427 -18.06027193 86.02078386 -25.0625 76 C-26.77480177 73.2020503 -26.77480177 73.2020503 -29.0625 72.25 C-29.6875 69.6875 -29.6875 69.6875 -30.0625 67.25 C-32.99257034 67.05384657 -32.99257034 67.05384657 -35.21484375 68.16796875 Z M73.9375 68.25 C71.67864676 71.50397508 71.67864676 71.50397508 70.9375 75.25 C70.2775 75.58 69.6175 75.91 68.9375 76.25 C68.6075 76.91 68.2775 77.57 67.9375 78.25 C66.9375 80.25 66.9375 80.25 64.9375 81.25 C64.463125 82.054375 63.98875 82.85875 63.5 83.6875 C61.9375 86.25 61.9375 86.25 58.9375 88.25 C57.9606555 89.97575862 56.98611429 91.70302639 56.0390625 93.4453125 C54.39569274 96.13764167 52.24241206 98.11795634 49.9375 100.25 C46.70493758 103.26284462 46.70493758 103.26284462 44.9375 107.25 C43.29261706 108.93816933 41.62412458 110.60353315 39.9375 112.25 C37.27569054 115.28876306 37.27569054 115.28876306 36.9375 119.25 C49.72705141 116.9521137 62.17876758 111.07039695 70.9375 101.25 C71.700625 100.528125 72.46375 99.80625 73.25 99.0625 C75.16463951 97.41877727 75.16463951 97.41877727 74.9375 95.25 C75.5975 94.92 76.2575 94.59 76.9375 94.25 C77.97041676 92.26679982 78.9712499 90.26652194 79.9375 88.25 C80.4325 87.755 80.4325 87.755 80.9375 87.25 C81.35928852 78.83451774 81.35928852 78.83451774 78.53125 71.2109375 C76.74983728 69.6954022 76.74983728 69.6954022 73.9375 68.25 Z M57.9375 75.25 C58.9375 77.25 58.9375 77.25 58.9375 77.25 Z M79.9375 75.25 C80.9375 78.25 80.9375 78.25 80.9375 78.25 Z " fill="#100813" transform="translate(403.0625,113.75)"/>
<path d="M0 0 C0.74507813 0.00902344 1.49015625 0.01804687 2.2578125 0.02734375 C4.08868059 0.05081642 5.91938238 0.08668475 7.75 0.125 C8.0078125 0.74375 8.265625 1.3625 8.53125 2 C9.90554618 4.39620873 10.7988461 4.96174052 13.25 6.125 C15.46968414 7.31559981 16.63674951 7.97728198 18.1875 10 C19.11930139 13.52013857 19.40059776 16.82380449 17.75 20.125 C17.09 20.125 16.43 20.125 15.75 20.125 C15.09 17.815 14.43 15.505 13.75 13.125 C3.83357644 10.36140655 -4.78952323 10.48076045 -13.9609375 15.546875 C-21.24121999 20.56604586 -25.49925927 27.87277782 -28.25 36.125 C-29.56343563 53.36853351 -24.59257079 64.43495467 -14.25 78.125 C-13.8463623 78.66705078 -13.44272461 79.20910156 -13.02685547 79.76757812 C-9.39095113 84.66825442 -9.39095113 84.66825442 -5.25 89.125 C-3.93 89.125 -2.61 89.125 -1.25 89.125 C-1.25 90.445 -1.25 91.765 -1.25 93.125 C0.38192196 95.13760538 1.99436135 96.92242566 3.8125 98.75 C17.36572851 112.89801363 17.36572851 112.89801363 18.0625 120.5625 C17.75 124.125 17.75 124.125 16.3125 126.0625 C11.58448547 128.02289627 6.55278743 127.72592914 1.75 126.125 C2.08 125.465 2.41 124.805 2.75 124.125 C4.73 124.125 6.71 124.125 8.75 124.125 C8.564375 123.361875 8.37875 122.59875 8.1875 121.8125 C7.75 119.125 7.75 119.125 8.75 116.125 C7.43325425 114.03732582 6.10996281 112.21890598 4.5625 110.3125 C3.88997192 109.46123535 3.88997192 109.46123535 3.20385742 108.59277344 C-0.73210281 103.65644302 -4.83702104 98.86283683 -8.98144531 94.10107422 C-11.8496352 90.79958079 -14.5716724 87.44612093 -17.1875 83.9375 C-19.58690942 80.77517156 -21.73023439 79.027576 -25.25 77.125 C-29.25 72.80067568 -29.25 72.80067568 -29.25 69.125 C-31.09725052 68.43340599 -31.09725052 68.43340599 -33.25 68.125 C-34.735 69.115 -34.735 69.115 -36.25 70.125 C-36.66570008 72.34998915 -36.66570008 72.34998915 -36.54296875 74.9140625 C-36.5284668 76.32558594 -36.5284668 76.32558594 -36.51367188 77.765625 C-36.48853516 78.75046875 -36.46339844 79.7353125 -36.4375 80.75 C-36.42396484 81.74257812 -36.41042969 82.73515625 -36.39648438 83.7578125 C-36.36105743 86.21408072 -36.31166196 88.66927285 -36.25 91.125 C-35.62351562 91.40085937 -34.99703125 91.67671875 -34.3515625 91.9609375 C-32.25 93.125 -32.25 93.125 -30.625 95.75 C-24.51613112 105.40671195 -11.7907873 111.61140423 -1.25 115.125 C-0.92 116.115 -0.59 117.105 -0.25 118.125 C3.26190809 119.35469878 3.26190809 119.35469878 6.75 120.125 C5.75 122.125 5.75 122.125 4.1875 122.75 C-5.70687722 124.27221188 -12.1727518 121.61160987 -20.30859375 116.24609375 C-22.43255194 114.91094886 -22.43255194 114.91094886 -25.875 114.125 C-32.87842838 112.04991011 -37.96990051 105.84269016 -42.25 100.125 C-43.46737054 97.82762757 -44.32732118 95.57009887 -45.25 93.125 C-45.765625 92.44050781 -46.28125 91.75601563 -46.8125 91.05078125 C-48.93336422 86.73413097 -48.60879472 82.7393698 -48.5 78 C-48.49484375 77.09378906 -48.4896875 76.18757813 -48.484375 75.25390625 C-48.37769397 66.25269397 -48.37769397 66.25269397 -45.25 63.125 C-44.755 62.25875 -44.26 61.3925 -43.75 60.5 C-43.255 59.71625 -42.76 58.9325 -42.25 58.125 C-41.59 58.125 -40.93 58.125 -40.25 58.125 C-39.92 57.135 -39.59 56.145 -39.25 55.125 C-38.26 54.63 -38.26 54.63 -37.25 54.125 C-37.30329468 53.29307129 -37.30329468 53.29307129 -37.35766602 52.44433594 C-37.51566815 49.92157727 -37.66417563 47.39834539 -37.8125 44.875 C-37.86857422 44.00230469 -37.92464844 43.12960938 -37.98242188 42.23046875 C-38.03076172 41.38613281 -38.07910156 40.54179687 -38.12890625 39.671875 C-38.1760376 38.89682617 -38.22316895 38.12177734 -38.27172852 37.32324219 C-38.22543973 32.64027351 -36.35318969 29.24725179 -34.25 25.125 C-33.94707031 24.3309375 -33.64414062 23.536875 -33.33203125 22.71875 C-30.96825592 17.052516 -27.08863244 10.96253607 -22.25 7.125 C-21.26 7.125 -20.27 7.125 -19.25 7.125 C-18.92 6.135 -18.59 5.145 -18.25 4.125 C-15.4375 3.0625 -15.4375 3.0625 -12.25 2.125 C-11.69441406 1.77824219 -11.13882813 1.43148437 -10.56640625 1.07421875 C-7.10852961 -0.34275262 -3.67223657 -0.08434466 0 0 Z M-37.25 56.125 C-36.25 59.125 -36.25 59.125 -36.25 59.125 Z M-36.25 60.125 C-35.25 62.125 -35.25 62.125 -35.25 62.125 Z " fill="#2D1A3B" transform="translate(403.25,113.875)"/>
<path d="M0 0 C0.99 0 1.98 0 3 0 C3.495 0.99 3.495 0.99 4 2 C4.94875 2.763125 5.8975 3.52625 6.875 4.3125 C11.38807165 8.00501317 13.66235813 12.34074595 15 18 C15.73447244 29.16697894 15.73447244 29.16697894 13 34 C12.87625 34.78375 12.7525 35.5675 12.625 36.375 C11.79852384 39.84619986 10.12672317 42.16436911 8 45 C7.01 45.495 7.01 45.495 6 46 C5.71382813 46.75410156 5.42765625 47.50820312 5.1328125 48.28515625 C2.14731893 55.44004601 -6.33567605 62.15519772 -13 66 C-13.99 66 -14.98 66 -16 66 C-17.01801357 66.98165594 -18.0159577 67.98429298 -19 69 C-24.0507028 71.75047963 -29.4307272 73.6076818 -35 75 C-36.1446875 75.309375 -36.1446875 75.309375 -37.3125 75.625 C-48.13378922 77.13494733 -48.13378922 77.13494733 -52.203125 74.66015625 C-53.9143279 73.18198301 -55.4891925 71.68089841 -57 70 C-57.37125 70.639375 -57.7425 71.27875 -58.125 71.9375 C-60.59899867 74.65889853 -62.40882117 74.69436776 -66 75 C-70.98494908 75 -74.86989815 74.75340123 -79 72 C-79 71.01 -79 70.02 -79 69 C-79.99 69.2475 -80.98 69.495 -82 69.75 C-86.86284519 70.42241747 -89.92379734 68.44716962 -94 66 C-94.90105469 65.48179687 -95.80210937 64.96359375 -96.73046875 64.4296875 C-101.74738492 61.50020472 -101.74738492 61.50020472 -104 60 C-104 59.67 -104 59.34 -104 59 C-98.01884929 59.26005003 -94.30912168 61.36441793 -89.33203125 64.625 C-84.79443991 67.30043074 -80.16247756 67.45489044 -75 67 C-72.59442147 66.13734032 -72.59442147 66.13734032 -71 65 C-73.31 64.34 -75.62 63.68 -78 63 C-78 62.01 -78 61.02 -78 60 C-77.38125 60.185625 -76.7625 60.37125 -76.125 60.5625 C-73.95839822 61.23686176 -73.95839822 61.23686176 -72 60 C-73.38338129 55.47257032 -75.36485159 53.89415804 -79 51 C-80.25603788 49.56112116 -81.46393149 48.07904983 -82.625 46.5625 C-86.3830471 41.73584791 -90.30248423 37.07899976 -94.31884766 32.46704102 C-96.62616003 29.78097177 -98.62186808 27.27900354 -100 24 C-96.75329542 24.25731458 -95.83809458 25.16674984 -93.51953125 27.5546875 C-92.60748649 28.65347787 -91.70567591 29.76081747 -90.8125 30.875 C-90.33055176 31.46144287 -89.84860352 32.04788574 -89.35205078 32.65209961 C-88.36467624 33.8554725 -87.3812677 35.06211048 -86.40185547 36.27197266 C-85.14591355 37.82013652 -83.87286937 39.35438949 -82.59765625 40.88671875 C-80.36966677 43.5689205 -78.18568947 46.28328034 -76 49 C-75.13563648 50.02362316 -74.2710467 51.04705528 -73.40625 52.0703125 C-67.18376771 59.62913513 -67.18376771 59.62913513 -66.66015625 63.53515625 C-66.9375 65.75 -66.9375 65.75 -68 69 C-71.465 69.99 -71.465 69.99 -75 71 C-73.06280622 71.05406122 -71.12518079 71.09282025 -69.1875 71.125 C-68.10855469 71.14820313 -67.02960938 71.17140625 -65.91796875 71.1953125 C-62.80597132 71.23023717 -62.80597132 71.23023717 -60 69 C-59.18014275 64.53633278 -59.88473723 61.67726651 -62.25 57.9375 C-66.66458219 51.79316565 -71.75919369 46.14600771 -76.76660156 40.48291016 C-78 39 -78 39 -80 36 C-78.68 36 -77.36 36 -76 36 C-76 36.66 -76 37.32 -76 38 C-75.34 38 -74.68 38 -74 38 C-72.68846237 39.46809505 -71.45005925 41.00195784 -70.25 42.5625 C-67.82334899 45.6837359 -65.38647251 48.74164551 -62.75 51.6875 C-59.96143854 54.88748856 -57.9872123 58.25486912 -56 62 C-55.01 62 -54.02 62 -53 62 C-52.67 60.68 -52.34 59.36 -52 58 C-51.34 58 -50.68 58 -50 58 C-50 57.34 -50 56.68 -50 56 C-49.34 56 -48.68 56 -48 56 C-47.89558594 55.41734375 -47.79117188 54.8346875 -47.68359375 54.234375 C-46.89706383 51.66354577 -45.82434109 50.2659942 -44.0625 48.25 C-43.53785156 47.63640625 -43.01320313 47.0228125 -42.47265625 46.390625 C-41 45 -41 45 -39 45 C-38.67 43.68 -38.34 42.36 -38 41 C-37.34 41 -36.68 41 -36 41 C-35.62875 40.1028125 -35.62875 40.1028125 -35.25 39.1875 C-33.82419078 36.69233387 -32.27632256 35.70724192 -30 34 C-29.505 33.01 -29.505 33.01 -29 32 C-27.77176275 29.54352551 -26.25851875 28.50567917 -24 27 C-24 31.95153637 -25.80470255 33.42359512 -29.0625 36.75 C-30.0812398 37.82633984 -31.0994695 38.90316271 -32.1171875 39.98046875 C-32.86307129 40.76043213 -32.86307129 40.76043213 -33.62402344 41.55615234 C-45.45881191 53.2617755 -45.45881191 53.2617755 -52.375 67.5 C-52.21045864 70.06318822 -52.21045864 70.06318822 -50.5 71.8125 C-46.87730459 73.53328032 -43.98961898 73.19948095 -40 73 C-40.639375 72.443125 -41.27875 71.88625 -41.9375 71.3125 C-44.29028969 68.67452368 -44.79441142 67.49500592 -45 64 C-43.56640625 61.54296875 -43.56640625 61.54296875 -41.5625 59.1875 C-40.90378906 58.39730469 -40.24507813 57.60710937 -39.56640625 56.79296875 C-39.04949219 56.20128906 -38.53257812 55.60960937 -38 55 C-37.34 55.66 -36.68 56.32 -36 57 C-37.32 59.31 -38.64 61.62 -40 64 C-37.93733676 63.20875876 -35.87487621 62.41698909 -33.8125 61.625 C-32.66394531 61.18414062 -31.51539063 60.74328125 -30.33203125 60.2890625 C-29.23246094 59.86367187 -28.13289063 59.43828125 -27 59 C-26.14921875 58.68804687 -25.2984375 58.37609375 -24.421875 58.0546875 C-21.54613026 56.80234705 -19.05861771 55.22067811 -16.4375 53.5 C-11.35603306 50.17343635 -11.35603306 50.17343635 -8.72265625 48.890625 C-6.37986603 47.67938652 -6.06388284 46.3937364 -5 44 C-4.34 43.030625 -3.68 42.06125 -3 41.0625 C-0.9503557 38.14331404 -0.9503557 38.14331404 0.125 35.1875 C1 33 1 33 3 32 C2.96690258 29.74937546 2.89742124 27.49926535 2.8125 25.25 C2.77769531 23.99703125 2.74289062 22.7440625 2.70703125 21.453125 C2.30511032 17.8293728 2.30511032 17.8293728 -0.55078125 15.546875 C-1.35902344 15.03640625 -2.16726563 14.5259375 -3 14 C-3.2784375 14.57234375 -3.556875 15.1446875 -3.84375 15.734375 C-4.98273792 17.96617566 -6.19936383 20.10870874 -7.5 22.25 C-7.9228125 22.95640625 -8.345625 23.6628125 -8.78125 24.390625 C-9.1834375 24.92171875 -9.585625 25.4528125 -10 26 C-10.66 26 -11.32 26 -12 26 C-12.0825 26.5775 -12.165 27.155 -12.25 27.75 C-13.20531013 30.6159304 -14.78469173 31.9990764 -17 34 C-17.66 33.34 -18.32 32.68 -19 32 C-18.34773438 31.17757812 -17.69546875 30.35515625 -17.0234375 29.5078125 C-9.77423647 20.28635133 -3.16022261 11.4765979 0 0 Z M-1 11 C0 14 0 14 0 14 Z M3 20 C4 23 4 23 4 23 Z " fill="#110814" transform="translate(480,169)"/>
<path d="M0 0 C10.65330144 5.40274573 17.52990757 16.55519296 21.15625 27.55078125 C22.10940868 31.42504263 22.43711937 35.00290458 22.625 38.984375 C22.84918483 44.20238701 22.84918483 44.20238701 24.0625 49.234375 C23.0725 49.234375 22.0825 49.234375 21.0625 49.234375 C21.000625 50.018125 20.93875 50.801875 20.875 51.609375 C18.7647241 61.02445209 13.07080529 68.20774633 7.16479492 75.61279297 C4.36370742 79.18724617 2.6674668 81.63662735 2.0625 86.234375 C0.61339581 88.56203016 -1.02313559 90.22662696 -2.9375 92.234375 C-3.5975 92.234375 -4.2575 92.234375 -4.9375 92.234375 C-5.205625 93.03875 -5.47375 93.843125 -5.75 94.671875 C-6.141875 95.5175 -6.53375 96.363125 -6.9375 97.234375 C-8.4225 97.729375 -8.4225 97.729375 -9.9375 98.234375 C-10.29162344 99.56233791 -10.62271554 100.89654107 -10.9375 102.234375 C-12.49802443 104.24076356 -13.35149722 105.11812344 -15.8671875 105.6171875 C-19.08123865 106.5753386 -20.21121902 108.61120145 -22.01171875 111.3203125 C-23.1646947 113.3776163 -23.1646947 113.3776163 -23.0625 116.546875 C-22.17821714 119.45187671 -22.17821714 119.45187671 -19.375 120.609375 C-18.570625 120.815625 -17.76625 121.021875 -16.9375 121.234375 C-18.9375 123.234375 -18.9375 123.234375 -22.75 123.609375 C-25.93111742 123.52245922 -27.0416658 123.17578174 -29.9375 121.546875 C-31.9375 119.234375 -31.9375 119.234375 -32.31640625 116.98828125 C-31.80601709 113.2787518 -30.03100445 110.81253942 -27.875 107.859375 C-27.46523926 107.28356689 -27.05547852 106.70775879 -26.63330078 106.11450195 C-23.90176664 102.35212999 -21.00984163 99.00945782 -17.62109375 95.83984375 C-15.11650307 93.45147538 -12.89479231 90.84099492 -10.64453125 88.21484375 C-9.51737302 86.90713386 -8.36902628 85.61735746 -7.19921875 84.34765625 C-4.09462474 80.93186189 -2.65081466 78.87092031 -1.9375 74.234375 C0 70.921875 0 70.921875 2.0625 68.234375 C2.7225 68.234375 3.3825 68.234375 4.0625 68.234375 C4.5575 66.749375 4.5575 66.749375 5.0625 65.234375 C6.0525 65.729375 6.0525 65.729375 7.0625 66.234375 C8.0420958 64.44294293 9.0211633 62.65122196 10 60.859375 C10.81791016 59.36277344 10.81791016 59.36277344 11.65234375 57.8359375 C13.82151532 53.83408636 14.17387744 51.70385403 14.125 47.109375 C14.11597656 46.01367188 14.10695313 44.91796875 14.09765625 43.7890625 C14.08605469 42.94601563 14.07445312 42.10296875 14.0625 41.234375 C14.3925 41.234375 14.7225 41.234375 15.0625 41.234375 C15.72825671 35.30271932 15.72825671 35.30271932 13.375 30.171875 C12.611875 29.5325 11.84875 28.893125 11.0625 28.234375 C10.28340454 26.98116806 9.53641574 25.70774566 8.8125 24.421875 C6.41989925 20.44897623 3.55027486 17.77127728 -0.01171875 14.83984375 C-1.71155992 13.42273478 -3.22934705 11.96272207 -4.75 10.359375 C-8.85082206 6.37571929 -13.55074798 6.89791221 -18.9765625 6.95703125 C-23.25212402 7.35751261 -24.94292121 8.15886165 -27.9375 11.234375 C-28.9063059 14.36702979 -28.9063059 14.36702979 -28.9375 17.234375 C-29.5975 17.234375 -30.2575 17.234375 -30.9375 17.234375 C-32.70070003 13.70797495 -32.74021885 10.06173848 -31.9375 6.234375 C-24.81880364 -3.00275378 -10.4524604 -2.72431149 0 0 Z M2.0625 69.234375 C3.0625 71.234375 3.0625 71.234375 3.0625 71.234375 Z " fill="#2E1A3C" transform="translate(458.9375,119.765625)"/>
<path d="M0 0 C0.66 0 1.32 0 2 0 C3.2890625 1.53125 3.2890625 1.53125 4.625 3.5 C5.07101562 4.1496875 5.51703125 4.799375 5.9765625 5.46875 C6.31429687 5.9740625 6.65203125 6.479375 7 7 C7.66 6.67 8.32 6.34 9 6 C11.55793911 11.75536299 11.58603289 17.8121821 11 24 C10.0078125 26.21875 10.0078125 26.21875 9 28 C8.814375 29.175625 8.814375 29.175625 8.625 30.375 C7.79852384 33.84619986 6.12672317 36.16436911 4 39 C3.01 39.495 3.01 39.495 2 40 C1.71382813 40.75410156 1.42765625 41.50820312 1.1328125 42.28515625 C-1.85268107 49.44004601 -10.33567605 56.15519772 -17 60 C-17.99 60 -18.98 60 -20 60 C-21.54166642 61.37485532 -21.54166642 61.37485532 -23 63 C-26.69703618 65.46469079 -29.21428231 65.09822313 -33.4375 64.75 C-34.10587891 64.71003906 -34.77425781 64.67007813 -35.46289062 64.62890625 C-39.06395198 64.36480462 -41.91391853 63.92584112 -45 62 C-45 61.34 -45 60.68 -45 60 C-44.04480469 59.78085938 -43.08960938 59.56171875 -42.10546875 59.3359375 C-27.09471516 55.72306756 -13.17600461 48.89540453 -4 36 C0.00213332 29.25903302 2.35331062 22.88268559 1 15 C0.484375 13.96875 -0.03125 12.9375 -0.5625 11.875 C-2.59813708 7.80372585 -1.89764361 5.4134144 -1 1 C-0.67 0.67 -0.34 0.34 0 0 Z " fill="#2E1B3D" transform="translate(484,175)"/>
<path d="M0 0 C1.5 1.0625 1.5 1.0625 3 3 C3.57002319 8.13020868 2.90397244 10.81674454 0 15 C-4.30441123 19.39471357 -8.98212145 23.40393391 -14.0625 26.875 C-17.23594309 28.73566424 -17.23594309 28.73566424 -18 32 C-19.33225289 32.33762573 -20.66586701 32.66988177 -22 33 C-23.91466727 34.2974751 -25.78725736 35.65818723 -27.625 37.0625 C-32.78734622 41 -32.78734622 41 -35 41 C-35.66615149 37.97263827 -36.14090974 35.10523326 -36 32 C-33.625 29.125 -33.625 29.125 -31 27 C-30.67 26.01 -30.34 25.02 -30 24 C-27.25545148 21.52703308 -24.19087743 19.45976365 -21.1875 17.3125 C-20.36701172 16.70599609 -19.54652344 16.09949219 -18.70117188 15.47460938 C-17.90646484 14.90162109 -17.11175781 14.32863281 -16.29296875 13.73828125 C-15.5661792 13.21274658 -14.83938965 12.68721191 -14.09057617 12.14575195 C-12 11 -12 11 -8 11 C-3.32532093 7.82121823 -1.31736401 5.66466525 0 0 Z " fill="#2D1A3C" transform="translate(413,127)"/>
<path d="M0 0 C0.66 0 1.32 0 2 0 C3.60228383 1.70940029 5.01294742 3.53301528 6.46484375 5.37109375 C8.00756886 7.26558258 8.00756886 7.26558258 11 8 C10.67 8.66 10.34 9.32 10 10 C10.52207031 10.23332031 11.04414063 10.46664062 11.58203125 10.70703125 C14.81040633 12.43335137 17.72622945 14.5475863 20.6875 16.6875 C21.30455811 17.13085693 21.92161621 17.57421387 22.55737305 18.03100586 C35.05234961 27.05234961 35.05234961 27.05234961 38 30 C37.91062197 31.52519276 37.75462854 33.04681929 37.5625 34.5625 C37.46066406 35.38878906 37.35882813 36.21507812 37.25390625 37.06640625 C37.17011719 37.70449219 37.08632813 38.34257812 37 39 C33.54313626 37.7446996 30.8456598 36.33323579 27.9609375 34.05859375 C27.22053223 33.47916016 26.48012695 32.89972656 25.71728516 32.30273438 C24.94433105 31.68720703 24.17137695 31.07167969 23.375 30.4375 C22.57755371 29.80779297 21.78010742 29.17808594 20.95849609 28.52929688 C19.36652924 27.26964786 17.77679711 26.00716877 16.18945312 24.74169922 C14.3070422 23.24425056 12.41461344 21.76145567 10.515625 20.28515625 C1.3526945 13.04148822 1.3526945 13.04148822 -1 8 C-1.30644155 4.81300783 -1.43304064 2.86608129 0 0 Z " fill="#2D1A3C" transform="translate(434,131)"/>
<path d="M0 0 C0.33 0 0.66 0 1 0 C1.28875 1.19625 1.5775 2.3925 1.875 3.625 C3.43452101 11.1907115 3.43452101 11.1907115 7.5625 17.375 C9 19 9 19 9 23 C8.34 23 7.68 23 7 23 C7 22.01 7 21.02 7 20 C5.15274948 19.30840599 5.15274948 19.30840599 3 19 C2.01 19.66 1.02 20.32 0 21 C-0.41570008 23.22498915 -0.41570008 23.22498915 -0.29296875 25.7890625 C-0.2784668 27.20058594 -0.2784668 27.20058594 -0.26367188 28.640625 C-0.2259668 30.11789063 -0.2259668 30.11789063 -0.1875 31.625 C-0.17396484 32.61757812 -0.16042969 33.61015625 -0.14648438 34.6328125 C-0.11105743 37.08908072 -0.06166196 39.54427285 0 42 C0.62648438 42.27585938 1.25296875 42.55171875 1.8984375 42.8359375 C4 44 4 44 5.625 46.625 C11.73386888 56.28171195 24.4592127 62.48640423 35 66 C34.67 66.66 34.34 67.32 34 68 C22.95415254 67.50907345 12.40572133 59.73755769 5.02734375 51.90625 C-0.01681632 45.82327141 -4.10981626 38.89280454 -4.375 30.8125 C-3.9148085 26.13388642 -3.06839056 21.96808787 -0.8125 17.8125 C0.23829691 15.46841458 -0.22679223 14.39694408 -1 12 C-1 11.01 -1 10.02 -1 9 C-3.60608273 11.5162178 -5.89381685 14.05134359 -8 17 C-8.6875 15.25 -8.6875 15.25 -9 13 C-7.6875 10.75 -7.6875 10.75 -6 9 C-5.34 9 -4.68 9 -4 9 C-3.67 8.01 -3.34 7.02 -3 6 C-2.34 5.67 -1.68 5.34 -1 5 C-0.34444881 2.47266765 -0.34444881 2.47266765 0 0 Z " fill="#0C060E" transform="translate(367,163)"/>
<path d="M0 0 C2.16457612 4.32915223 3.1573969 6.95013342 3.1875 11.875 C3.20167969 12.92429688 3.21585937 13.97359375 3.23046875 15.0546875 C3.00196455 17.97489375 2.43170779 19.50142115 1 22 C0.87625 22.78375 0.7525 23.5675 0.625 24.375 C-0.20147616 27.84619986 -1.87327683 30.16436911 -4 33 C-4.99 33.495 -4.99 33.495 -6 34 C-6.2475 34.7425 -6.495 35.485 -6.75 36.25 C-8.45640626 40.00409376 -10.73586111 41.51641606 -14 44 C-14.495 42.515 -14.495 42.515 -15 41 C-14.48050781 40.46632812 -13.96101563 39.93265625 -13.42578125 39.3828125 C-5.46950424 30.88239085 -0.79070795 22.76221334 -1 11 C-1.13513514 3.40540541 -1.13513514 3.40540541 0 0 Z " fill="#0C050C" transform="translate(492,181)"/>
<path d="M0 0 C7.7076404 2.16777386 13.10584493 8.47447411 17.08984375 15.10546875 C18.02622918 17.05459721 18.5552652 18.88868003 19 21 C15.70399431 19.6358968 14.40165535 18.44941258 12.75 15.3125 C10.36357406 11.23630663 7.50222474 8.5203047 3.8671875 5.54296875 C2.13531168 4.11181614 0.56058452 2.61389642 -1 1 C-0.67 0.67 -0.34 0.34 0 0 Z " fill="#100815" transform="translate(455,129)"/>
<path d="M0 0 C0.66 0.99 1.32 1.98 2 3 C0.40320196 4.3421492 -1.20270197 5.67347115 -2.8125 7 C-3.70582031 7.7425 -4.59914063 8.485 -5.51953125 9.25 C-8 11 -8 11 -11 11 C-12.54166642 12.37485532 -12.54166642 12.37485532 -14 14 C-17 16 -17 16 -19.1875 15.625 C-19.785625 15.41875 -20.38375 15.2125 -21 15 C-18.57442285 12.25909782 -15.99880837 10.83459139 -12.75 9.1875 C-7.86892883 6.60111568 -4.029956 3.76129226 0 0 Z " fill="#0F0810" transform="translate(475,224)"/>
<path d="M0 0 C0.75410156 0.00451172 1.50820313 0.00902344 2.28515625 0.01367188 C4.14847127 0.02546501 6.01174555 0.04340058 7.875 0.0625 C7.875 1.0525 7.875 2.0425 7.875 3.0625 C6.98039062 3.01609375 6.08578125 2.9696875 5.1640625 2.921875 C-2.09133457 2.70529598 -7.59670223 3.0206438 -14.13671875 6.28515625 C-16.125 7.0625 -16.125 7.0625 -19.125 6.0625 C-16.58523329 2.95834069 -13.90312602 2.18789924 -10.125 1.0625 C-6.93675432 -0.53162284 -3.49603338 -0.03924735 0 0 Z " fill="#0D0710" transform="translate(403.125,113.9375)"/>
<path d="M0 0 C0.66 0.66 1.32 1.32 2 2 C1.04882866 3.1725131 0.08882991 4.33787015 -0.875 5.5 C-1.67550781 6.47453125 -1.67550781 6.47453125 -2.4921875 7.46875 C-2.98976563 7.9740625 -3.48734375 8.479375 -4 9 C-4.66 9 -5.32 9 -6 9 C-6.268125 9.804375 -6.53625 10.60875 -6.8125 11.4375 C-7.204375 12.283125 -7.59625 13.12875 -8 14 C-8.99 14.33 -9.98 14.66 -11 15 C-11.73323796 17.01508358 -11.73323796 17.01508358 -12 19 C-13.32 19.33 -14.64 19.66 -16 20 C-14.51516897 16.76306836 -12.67292565 14.0674375 -10.5 11.25 C-9.8915625 10.45078125 -9.283125 9.6515625 -8.65625 8.828125 C-8.1096875 8.22484375 -7.563125 7.6215625 -7 7 C-6.34 7 -5.68 7 -5 7 C-4.731875 6.401875 -4.46375 5.80375 -4.1875 5.1875 C-3.01506533 3.02775192 -1.80630718 1.64209744 0 0 Z " fill="#110813" transform="translate(460,203)"/>
<path d="M0 0 C0.33 0.99 0.66 1.98 1 3 C-1.05702278 4.63236654 -3.12009853 6.25587005 -5.1875 7.875 C-6.0547168 8.56529297 -6.0547168 8.56529297 -6.93945312 9.26953125 C-10.16966649 11.78800269 -13.0554821 13.70744611 -17 15 C-17.33 14.34 -17.66 13.68 -18 13 C-12.06 8.71 -6.12 4.42 0 0 Z " fill="#0C060D" transform="translate(401,138)"/>
<path d="M0 0 C0.66 0 1.32 0 2 0 C1.67 1.65 1.34 3.3 1 5 C0.34 5 -0.32 5 -1 5 C-1.20625 5.721875 -1.4125 6.44375 -1.625 7.1875 C-3.45248163 10.9255306 -5.70438806 12.49246917 -9 15 C-9.33 14.01 -9.66 13.02 -10 12 C-9.44570313 11.38511719 -8.89140625 10.77023438 -8.3203125 10.13671875 C-7.59585937 9.32847656 -6.87140625 8.52023438 -6.125 7.6875 C-5.40570313 6.88699219 -4.68640625 6.08648437 -3.9453125 5.26171875 C-1.88394498 2.95810917 -1.88394498 2.95810917 0 0 Z " fill="#110918" transform="translate(487,210)"/>
<path d="M0 0 C0.66 0 1.32 0 2 0 C2.12117188 0.78503906 2.24234375 1.57007813 2.3671875 2.37890625 C3.27186083 8.05051213 4.2579299 13.52492254 6 19 C5.34 19.33 4.68 19.66 4 20 C3.71125 19.236875 3.4225 18.47375 3.125 17.6875 C2.03730987 14.84970692 2.03730987 14.84970692 0 12 C-0.1953125 9.08203125 -0.1953125 9.08203125 -0.125 5.8125 C-0.10695313 4.72582031 -0.08890625 3.63914063 -0.0703125 2.51953125 C-0.04710937 1.68808594 -0.02390625 0.85664063 0 0 Z " fill="#110915" transform="translate(355,190)"/>
<path d="M0 0 C0.66 0 1.32 0 2 0 C2 0.66 2 1.32 2 2 C3.98 1.34 5.96 0.68 8 0 C8 0.99 8 1.98 8 3 C7.0409375 3.6496875 7.0409375 3.6496875 6.0625 4.3125 C3.67933367 5.91325516 3.67933367 5.91325516 3.25 9.1875 C3.1675 10.115625 3.085 11.04375 3 12 C2.34 12 1.68 12 1 12 C0.03929566 9.11788698 -0.10581883 7.30149956 -0.0625 4.3125 C-0.05347656 3.50425781 -0.04445313 2.69601563 -0.03515625 1.86328125 C-0.02355469 1.24839844 -0.01195312 0.63351563 0 0 Z " fill="#090309" transform="translate(374,153)"/>
<path d="M0 0 C1.32 1.32 2.64 2.64 4 4 C3.505 4.7425 3.01 5.485 2.5 6.25 C0.68076525 9.06318188 0.68076525 9.06318188 1 13 C0.34 13 -0.32 13 -1 13 C-1 15.97 -1 18.94 -1 22 C-1.66 22.33 -2.32 22.66 -3 23 C-3.2184769 16.77340824 -2.86438184 11.43438761 0.1875 5.8125 C1.22334675 3.50176494 0.83438967 2.33629107 0 0 Z " fill="#150B19" transform="translate(366,175)"/>
<path d="M0 0 C5.44520597 0.43561648 8.7160481 1.59231099 13 5 C14.875 7.25 14.875 7.25 16 9 C12.08434122 8.43864007 9.55237392 7.31225965 6.3125 5.0625 C5.54550781 4.53785156 4.77851563 4.01320312 3.98828125 3.47265625 C2 2 2 2 0 0 Z " fill="#0C060D" transform="translate(376,228)"/>
<path d="M0 0 C0.66 0 1.32 0 2 0 C1.40165275 4.14298667 -0.00664285 7.18194377 -2.0625 10.8125 C-2.61035156 11.78832031 -3.15820312 12.76414063 -3.72265625 13.76953125 C-4.14417969 14.50558594 -4.56570313 15.24164063 -5 16 C-5.66 16 -6.32 16 -7 16 C-5.15832177 10.34341687 -3.38857067 4.94166557 0 0 Z " fill="#0E0711" transform="translate(374,129)"/>
<path d="M0 0 C0.66 0.66 1.32 1.32 2 2 C0.87851562 2.39832031 0.87851562 2.39832031 -0.265625 2.8046875 C-1.25046875 3.15789062 -2.2353125 3.51109375 -3.25 3.875 C-4.22453125 4.22304687 -5.1990625 4.57109375 -6.203125 4.9296875 C-8.56294327 5.83274645 -10.76905116 6.82078418 -13 8 C-12.06601394 4.85841051 -11.33205059 3.2674852 -8.75 1.1875 C-5.5710473 -0.18522958 -3.42918185 -0.38102021 0 0 Z " fill="#0A040E" transform="translate(400,126)"/>
<path d="M0 0 C0.66 0.33 1.32 0.66 2 1 C-0.72525331 7.44150782 -4.61676806 11.32794942 -11 14 C-9.57847097 10.56463819 -7.92739556 9.19554667 -5 7 C-4.30062468 5.68352881 -3.63270867 4.34977849 -3 3 C-1.375 1.25 -1.375 1.25 0 0 Z " fill="#0A050B" transform="translate(455,196)"/>
<path d="M0 0 C2.15942819 3.23914229 2.27232978 4.24859733 2.25 8 C2.25515625 8.86625 2.2603125 9.7325 2.265625 10.625 C2 13 2 13 0 16 C-1.41634833 13.16730334 -1.3463005 10.52533562 -1.5625 7.375 C-1.64628906 6.18648437 -1.73007812 4.99796875 -1.81640625 3.7734375 C-1.87699219 2.85820312 -1.93757813 1.94296875 -2 1 C-1.34 0.67 -0.68 0.34 0 0 Z M-1 2 C0 5 0 5 0 5 Z " fill="#160C1A" transform="translate(484,187)"/>
<path d="M0 0 C3.63 2.31 7.26 4.62 11 7 C10.01 7.99 9.02 8.98 8 10 C5.03 7.69 2.06 5.38 -1 3 C-0.67 2.01 -0.34 1.02 0 0 Z " fill="#140B17" transform="translate(445,138)"/>
<path d="M0 0 C1.60294922 0.15275391 1.60294922 0.15275391 3.23828125 0.30859375 C4.45064453 0.43427734 4.45064453 0.43427734 5.6875 0.5625 C2.33552157 2.79715229 1.10958754 2.83358649 -2.8125 2.8125 C-4.25109375 2.82023437 -4.25109375 2.82023437 -5.71875 2.828125 C-8.3125 2.5625 -8.3125 2.5625 -11.3125 0.5625 C-7.36602382 -0.42594951 -4.03857036 -0.39941905 0 0 Z " fill="#190E20" transform="translate(408.3125,124.4375)"/>
<path d="M0 0 C3.66060821 0.58536753 5.54535164 2.083239 8.25 4.5625 C8.95640625 5.20316406 9.6628125 5.84382812 10.390625 6.50390625 C10.92171875 6.99761719 11.4528125 7.49132812 12 8 C11.01 8.66 10.02 9.32 9 10 C7.86800647 9.0919838 6.74467637 8.17316174 5.625 7.25 C4.99851562 6.73953125 4.37203125 6.2290625 3.7265625 5.703125 C1.91687682 3.91800519 0.99882545 2.32050356 0 0 Z " fill="#0F0711" transform="translate(366,218)"/>
<path d="M0 0 C0.33 1.98 0.66 3.96 1 6 C-0.98 6.33 -2.96 6.66 -5 7 C-5.33 6.01 -5.66 5.02 -6 4 C-4.68 3.34 -3.36 2.68 -2 2 C-4.97 1.505 -4.97 1.505 -8 1 C-8 0.67 -8 0.34 -8 0 C-4.71303767 -0.79953138 -3.28976808 -1.09658936 0 0 Z " fill="#180D1C" transform="translate(411,232)"/>
<path d="M0 0 C4.38462134 0.50109958 6.8000997 1.98295115 10 5 C10 5.66 10 6.32 10 7 C10.66 7.33 11.32 7.66 12 8 C11.01 8.33 10.02 8.66 9 9 C7.99403703 8.0479279 6.99538437 7.08812654 6 6.125 C5.443125 5.59132812 4.88625 5.05765625 4.3125 4.5078125 C3 3 3 3 3 1 C1.68 1.33 0.36 1.66 -1 2 C-0.67 1.34 -0.34 0.68 0 0 Z " fill="#0C050D" transform="translate(433,130)"/>
<path d="M0 0 C0.99 0 1.98 0 3 0 C3.19622241 4.21878192 2.80230168 7.17010894 1 11 C0.34 11 -0.32 11 -1 11 C-1.14285714 3.57142857 -1.14285714 3.57142857 0 0 Z " fill="#0A0410" transform="translate(480,169)"/>
<path d="M0 0 C0.33 0 0.66 0 1 0 C0.50769231 6.4 0.50769231 6.4 -2.0625 9.4375 C-3.0215625 10.2109375 -3.0215625 10.2109375 -4 11 C-4.99 10.67 -5.98 10.34 -7 10 C-6.21654285 8.82780457 -5.42297164 7.66236332 -4.625 6.5 C-4.18414062 5.8503125 -3.74328125 5.200625 -3.2890625 4.53125 C-2.86367188 4.0259375 -2.43828125 3.520625 -2 3 C-1.34 3 -0.68 3 0 3 C0 2.01 0 1.02 0 0 Z M-2 4 C-1 6 -1 6 -1 6 Z " fill="#0F0712" transform="translate(463,185)"/>
<path d="M0 0 C1.91302307 3.26613695 2.35674661 5.99445248 2.625 9.75 C2.69976562 10.73484375 2.77453125 11.7196875 2.8515625 12.734375 C2.92503906 13.85585937 2.92503906 13.85585937 3 15 C1.51171875 13.88671875 1.51171875 13.88671875 0 12 C-0.29296875 9.08203125 -0.29296875 9.08203125 -0.1875 5.8125 C-0.16042969 4.72582031 -0.13335937 3.63914063 -0.10546875 2.51953125 C-0.07066406 1.68808594 -0.03585937 0.85664063 0 0 Z " fill="#140A17" transform="translate(481,154)"/>
<path d="M0 0 C-1.49097658 3.7952131 -3.75700849 5.61042731 -7 8 C-7.66 7.34 -8.32 6.68 -9 6 C-8.07213211 4.99105628 -7.13231567 3.99309093 -6.1875 3 C-5.66542969 2.443125 -5.14335937 1.88625 -4.60546875 1.3125 C-3 0 -3 0 0 0 Z " fill="#0B050D" transform="translate(384,121)"/>
<path d="M0 0 C0.66 0.33 1.32 0.66 2 1 C1.01 1.33 0.02 1.66 -1 2 C-1.2165625 2.8971875 -1.2165625 2.8971875 -1.4375 3.8125 C-2.18951488 6.7370023 -3.79712511 8.01030655 -6 10 C-6.66 9.34 -7.32 8.68 -8 8 C-7.04578192 6.85073734 -6.08647955 5.70569459 -5.125 4.5625 C-4.59132813 3.92441406 -4.05765625 3.28632813 -3.5078125 2.62890625 C-2 1 -2 1 0 0 Z " fill="#0C060D" transform="translate(469,193)"/>
<path d="M0 0 C1.98073365 0.280828 3.95958448 0.57496614 5.9375 0.875 C7.59072266 1.11863281 7.59072266 1.11863281 9.27734375 1.3671875 C10.17582031 1.57601562 11.07429688 1.78484375 12 2 C12.33 2.66 12.66 3.32 13 4 C11.04196493 4.05389087 9.08351091 4.09274217 7.125 4.125 C6.03445313 4.14820313 4.94390625 4.17140625 3.8203125 4.1953125 C1 4 1 4 -1 2 C-0.67 1.34 -0.34 0.68 0 0 Z " fill="#0A0409" transform="translate(429,241)"/>
<path d="M0 0 C1.31471568 0.28151087 2.62675767 0.57553339 3.9375 0.875 C4.66839844 1.03742188 5.39929688 1.19984375 6.15234375 1.3671875 C8 2 8 2 9 4 C9.99 4.33 10.98 4.66 12 5 C12 5.66 12 6.32 12 7 C7.39104317 5.68315519 3.85859765 3.84801255 0 1 C0 0.67 0 0.34 0 0 Z " fill="#160A18" transform="translate(382,222)"/>
<path d="M0 0 C0.99 0.33 1.98 0.66 3 1 C2.34 1 1.68 1 1 1 C1 1.66 1 2.32 1 3 C0.01 3.33 -0.98 3.66 -2 4 C-1.67 4.66 -1.34 5.32 -1 6 C-1.9375 8.125 -1.9375 8.125 -3 10 C-3.66 8.02 -4.32 6.04 -5 4 C-2.6875 1.9375 -2.6875 1.9375 0 0 Z " fill="#1A0E1F" transform="translate(435,127)"/>
<path d="M0 0 C0.99 0 1.98 0 3 0 C3 2.64 3 5.28 3 8 C0 6 0 6 -0.75 4 C-1 2 -1 2 0 0 Z " fill="#010000" transform="translate(423,232)"/>
<path d="M0 0 C1.5 1.375 1.5 1.375 3 3 C3 3.66 3 4.32 3 5 C0.03 5 -2.94 5 -6 5 C-6 4.01 -6 3.02 -6 2 C-5.071875 2.2784375 -5.071875 2.2784375 -4.125 2.5625 C-1.95839822 3.23686176 -1.95839822 3.23686176 0 2 C0 1.34 0 0.68 0 0 Z " fill="#050205" transform="translate(408,227)"/>
<path d="M0 0 C0.66 0.33 1.32 0.66 2 1 C2 3.31 2 5.62 2 8 C1.01 8.495 1.01 8.495 0 9 C-1.125 3.375 -1.125 3.375 0 0 Z " fill="#1E0A22" transform="translate(473,151)"/>
<path d="M0 0 C2.97 0.495 2.97 0.495 6 1 C6.33 1.99 6.66 2.98 7 4 C3.125 3.125 3.125 3.125 2 2 C1.01 3.485 1.01 3.485 0 5 C-0.66 4.67 -1.32 4.34 -2 4 C-1.34 2.68 -0.68 1.36 0 0 Z " fill="#0A040D" transform="translate(411,126)"/>
<path d="M0 0 C3.34373475 0.55728913 6.03312999 1.35173889 9 3 C5.67465243 4.10844919 3.37817425 3.84454356 0 3 C0 2.01 0 1.02 0 0 Z " fill="#09040A" transform="translate(453,116)"/>
<path d="M0 0 C0.66 0.33 1.32 0.66 2 1 C2.125 3.875 2.125 3.875 2 7 C1.34 7.66 0.68 8.32 0 9 C-1.125 3.375 -1.125 3.375 0 0 Z " fill="#0F0710" transform="translate(356,179)"/>
<path d="M0 0 C0.33 0.99 0.66 1.98 1 3 C-0.98 4.32 -2.96 5.64 -5 7 C-3.75023244 3.34683329 -3.32901247 2.21934164 0 0 Z " fill="#110819" transform="translate(401,138)"/>
<path d="M0 0 C0.33 0 0.66 0 1 0 C1 2.97 1 5.94 1 9 C0.67 9 0.34 9 0 9 C0 6.03 0 3.06 0 0 Z " fill="#000000" transform="translate(364,154)"/>
<path d="M0 0 C1 4 1 4 1 4 Z " fill="#000000" transform="translate(482,197)"/>
<path d="M0 0 C4 1 4 1 4 1 Z " fill="#000000" transform="translate(447,129)"/>
<path d="M0 0 C3 1 3 1 3 1 Z " fill="#000000" transform="translate(397,239)"/>
<path d="" fill="#000000" transform="translate(0,0)"/>
<path d="" fill="#000000" transform="translate(0,0)"/>
<path d="" fill="#000000" transform="translate(0,0)"/>
<path d="M0 0 C3 1 3 1 3 1 Z " fill="#000000" transform="translate(449,115)"/>
<path d="M0 0 C3 1 3 1 3 1 Z " fill="#000000" transform="translate(441,115)"/>
<path d="" fill="#000000" transform="translate(0,0)"/>
<path d="M0 0 C2 1 2 1 2 1 Z " fill="#000000" transform="translate(437,129)"/>
<path d="" fill="#000000" transform="translate(0,0)"/>
<path d="" fill="#000000" transform="translate(0,0)"/>
<path d="" fill="#000000" transform="translate(0,0)"/>
<path d="" fill="#000000" transform="translate(0,0)"/>
<path d="" fill="#000000" transform="translate(0,0)"/>
<path d="" fill="#000000" transform="translate(0,0)"/>
<path d="" fill="#000000" transform="translate(0,0)"/>
<path d="" fill="#000000" transform="translate(0,0)"/>
<path d="" fill="#000000" transform="translate(0,0)"/>
<path d="" fill="#000000" transform="translate(0,0)"/>
<path d="" fill="#000000" transform="translate(0,0)"/>
<path d="" fill="#000000" transform="translate(0,0)"/>
<path d="" fill="#000000" transform="translate(0,0)"/>
<path d="" fill="#000000" transform="translate(0,0)"/>
<path d="" fill="#000000" transform="translate(0,0)"/>
<path d="" fill="#000000" transform="translate(0,0)"/>
<path d="" fill="#000000" transform="translate(0,0)"/>
<path d="" fill="#000000" transform="translate(0,0)"/>
<path d="" fill="#000000" transform="translate(0,0)"/>
</svg>
